<mxfile host="app.diagrams.net" modified="2023-09-26T15:36:19.021Z" agent="Mozilla/5.0 (Macintosh; Intel Mac OS X 10_15_7) AppleWebKit/605.1.15 (KHTML, like Gecko) Version/16.5.1 Safari/605.1.15" etag="XOn6Teq7Wtec5o73OybJ" version="21.8.2" type="github">
  <diagram name="Page-1" id="42789a77-a242-8287-6e28-9cd8cfd52e62">
    <mxGraphModel dx="1242" dy="827" grid="1" gridSize="10" guides="1" tooltips="1" connect="1" arrows="1" fold="1" page="1" pageScale="1" pageWidth="1100" pageHeight="850" background="none" math="0" shadow="0">
      <root>
        <mxCell id="0" />
        <mxCell id="1" parent="0" />
        <mxCell id="1ea317790d2ca983-12" style="edgeStyle=none;rounded=1;html=1;labelBackgroundColor=none;startArrow=none;startFill=0;startSize=5;endArrow=classicThin;endFill=1;endSize=5;jettySize=auto;orthogonalLoop=1;strokeColor=#B3B3B3;strokeWidth=1;fontFamily=Verdana;fontSize=12" parent="1" source="1ea317790d2ca983-1" target="1ea317790d2ca983-2" edge="1">
          <mxGeometry relative="1" as="geometry" />
        </mxCell>
        <mxCell id="OWr_N0TGCGtYlwlOgDQf-5" value="0.1" style="edgeLabel;html=1;align=center;verticalAlign=middle;resizable=0;points=[];" parent="1ea317790d2ca983-12" vertex="1" connectable="0">
          <mxGeometry x="-0.1598" relative="1" as="geometry">
            <mxPoint as="offset" />
          </mxGeometry>
        </mxCell>
        <mxCell id="1ea317790d2ca983-13" value="0.6" style="edgeStyle=none;rounded=1;html=1;labelBackgroundColor=none;startArrow=none;startFill=0;startSize=5;endArrow=classicThin;endFill=1;endSize=5;jettySize=auto;orthogonalLoop=1;strokeColor=#B3B3B3;strokeWidth=1;fontFamily=Verdana;fontSize=12" parent="1" source="1ea317790d2ca983-1" target="1ea317790d2ca983-9" edge="1">
          <mxGeometry x="0.0039" relative="1" as="geometry">
            <mxPoint as="offset" />
          </mxGeometry>
        </mxCell>
        <mxCell id="1ea317790d2ca983-14" value="0.3" style="edgeStyle=none;rounded=1;html=1;labelBackgroundColor=none;startArrow=none;startFill=0;startSize=5;endArrow=classicThin;endFill=1;endSize=5;jettySize=auto;orthogonalLoop=1;strokeColor=#B3B3B3;strokeWidth=1;fontFamily=Verdana;fontSize=12" parent="1" source="1ea317790d2ca983-1" target="1ea317790d2ca983-3" edge="1">
          <mxGeometry x="-0.0045" relative="1" as="geometry">
            <mxPoint as="offset" />
          </mxGeometry>
        </mxCell>
        <mxCell id="1ea317790d2ca983-1" value="Initial State" style="ellipse;whiteSpace=wrap;html=1;rounded=0;shadow=1;comic=0;labelBackgroundColor=none;strokeWidth=1;fontFamily=Verdana;fontSize=12;align=center;direction=west;" parent="1" vertex="1">
          <mxGeometry x="430" y="30" width="90" height="60" as="geometry" />
        </mxCell>
        <mxCell id="1ea317790d2ca983-21" value="0.2" style="edgeStyle=none;rounded=1;html=1;labelBackgroundColor=none;startArrow=none;startFill=0;startSize=5;endArrow=classicThin;endFill=1;endSize=5;jettySize=auto;orthogonalLoop=1;strokeColor=#B3B3B3;strokeWidth=1;fontFamily=Verdana;fontSize=12" parent="1" source="1ea317790d2ca983-2" target="1ea317790d2ca983-7" edge="1">
          <mxGeometry relative="1" as="geometry" />
        </mxCell>
        <mxCell id="1ea317790d2ca983-22" value="0.8" style="edgeStyle=none;rounded=1;html=1;labelBackgroundColor=none;startArrow=none;startFill=0;startSize=5;endArrow=classicThin;endFill=1;endSize=5;jettySize=auto;orthogonalLoop=1;strokeColor=#B3B3B3;strokeWidth=1;fontFamily=Verdana;fontSize=12" parent="1" source="1ea317790d2ca983-2" target="1ea317790d2ca983-6" edge="1">
          <mxGeometry x="0.0029" relative="1" as="geometry">
            <mxPoint as="offset" />
          </mxGeometry>
        </mxCell>
        <mxCell id="1ea317790d2ca983-2" value="&lt;span&gt;State 2&lt;/span&gt;" style="ellipse;whiteSpace=wrap;html=1;rounded=0;shadow=1;comic=0;labelBackgroundColor=none;strokeWidth=1;fontFamily=Verdana;fontSize=12;align=center;" parent="1" vertex="1">
          <mxGeometry x="420" y="190" width="72.5" height="50" as="geometry" />
        </mxCell>
        <mxCell id="1ea317790d2ca983-15" value="0.4" style="edgeStyle=none;rounded=1;html=1;labelBackgroundColor=none;startArrow=none;startFill=0;startSize=5;endArrow=classicThin;endFill=1;endSize=5;jettySize=auto;orthogonalLoop=1;strokeColor=#B3B3B3;strokeWidth=1;fontFamily=Verdana;fontSize=12;entryX=1;entryY=0;entryDx=0;entryDy=0;" parent="1" source="1ea317790d2ca983-3" target="1ea317790d2ca983-6" edge="1">
          <mxGeometry x="-0.0019" relative="1" as="geometry">
            <mxPoint as="offset" />
          </mxGeometry>
        </mxCell>
        <mxCell id="1ea317790d2ca983-3" value="&lt;span&gt;State 3&lt;/span&gt;" style="ellipse;whiteSpace=wrap;html=1;rounded=0;shadow=1;comic=0;labelBackgroundColor=none;strokeWidth=1;fontFamily=Verdana;fontSize=12;align=center;fillColor=#ffe6cc;strokeColor=#d79b00;" parent="1" vertex="1">
          <mxGeometry x="640" y="120" width="75" height="50" as="geometry" />
        </mxCell>
        <mxCell id="1ea317790d2ca983-16" value="0.3" style="edgeStyle=none;rounded=1;html=1;labelBackgroundColor=none;startArrow=none;startFill=0;startSize=5;endArrow=classicThin;endFill=1;endSize=5;jettySize=auto;orthogonalLoop=1;strokeColor=#B3B3B3;strokeWidth=1;fontFamily=Verdana;fontSize=12" parent="1" source="1ea317790d2ca983-4" target="1ea317790d2ca983-5" edge="1">
          <mxGeometry x="-0.0022" relative="1" as="geometry">
            <mxPoint as="offset" />
          </mxGeometry>
        </mxCell>
        <mxCell id="1ea317790d2ca983-4" value="&lt;span&gt;State 7&lt;/span&gt;" style="ellipse;whiteSpace=wrap;html=1;rounded=0;shadow=1;comic=0;labelBackgroundColor=none;strokeWidth=1;fontFamily=Verdana;fontSize=12;align=center;" parent="1" vertex="1">
          <mxGeometry x="685" y="260" width="75" height="50" as="geometry" />
        </mxCell>
        <mxCell id="1ea317790d2ca983-17" value="0.5" style="edgeStyle=none;rounded=1;html=1;labelBackgroundColor=none;startArrow=none;startFill=0;startSize=5;endArrow=classicThin;endFill=1;endSize=5;jettySize=auto;orthogonalLoop=1;strokeColor=#B3B3B3;strokeWidth=1;fontFamily=Verdana;fontSize=12" parent="1" source="1ea317790d2ca983-5" target="1ea317790d2ca983-8" edge="1">
          <mxGeometry relative="1" as="geometry" />
        </mxCell>
        <mxCell id="1ea317790d2ca983-5" value="&lt;span&gt;State 9&lt;/span&gt;" style="ellipse;whiteSpace=wrap;html=1;rounded=0;shadow=1;comic=0;labelBackgroundColor=none;strokeWidth=1;fontFamily=Verdana;fontSize=12;align=center;" parent="1" vertex="1">
          <mxGeometry x="685" y="400" width="75" height="50" as="geometry" />
        </mxCell>
        <mxCell id="1ea317790d2ca983-23" value="0.2" style="edgeStyle=none;rounded=1;html=1;labelBackgroundColor=none;startArrow=none;startFill=0;startSize=5;endArrow=classicThin;endFill=1;endSize=5;jettySize=auto;orthogonalLoop=1;strokeColor=#B3B3B3;strokeWidth=1;fontFamily=Verdana;fontSize=12" parent="1" source="1ea317790d2ca983-6" target="1ea317790d2ca983-5" edge="1">
          <mxGeometry relative="1" as="geometry" />
        </mxCell>
        <mxCell id="1ea317790d2ca983-6" value="&lt;span&gt;State 6&lt;/span&gt;" style="ellipse;whiteSpace=wrap;html=1;rounded=0;shadow=1;comic=0;labelBackgroundColor=none;strokeWidth=1;fontFamily=Verdana;fontSize=12;align=center;fillColor=#ffe6cc;strokeColor=#d79b00;" parent="1" vertex="1">
          <mxGeometry x="530" y="310" width="75" height="50" as="geometry" />
        </mxCell>
        <mxCell id="1ea317790d2ca983-24" value="0.3" style="edgeStyle=none;rounded=1;html=1;labelBackgroundColor=none;startArrow=none;startFill=0;startSize=5;endArrow=classicThin;endFill=1;endSize=5;jettySize=auto;orthogonalLoop=1;strokeColor=#B3B3B3;strokeWidth=1;fontFamily=Verdana;fontSize=12" parent="1" source="1ea317790d2ca983-7" target="1ea317790d2ca983-8" edge="1">
          <mxGeometry relative="1" as="geometry" />
        </mxCell>
        <mxCell id="1ea317790d2ca983-7" value="&lt;span&gt;State 5&lt;/span&gt;" style="ellipse;whiteSpace=wrap;html=1;rounded=0;shadow=1;comic=0;labelBackgroundColor=none;strokeWidth=1;fontFamily=Verdana;fontSize=12;align=center;" parent="1" vertex="1">
          <mxGeometry x="320" y="310" width="75" height="50" as="geometry" />
        </mxCell>
        <mxCell id="1ea317790d2ca983-8" value="Terminal State" style="ellipse;whiteSpace=wrap;html=1;rounded=0;shadow=1;comic=0;labelBackgroundColor=none;strokeWidth=1;fontFamily=Verdana;fontSize=12;align=center;" parent="1" vertex="1">
          <mxGeometry x="405" y="520" width="75" height="50" as="geometry" />
        </mxCell>
        <mxCell id="1ea317790d2ca983-19" value="0.3" style="edgeStyle=none;rounded=1;html=1;labelBackgroundColor=none;startArrow=none;startFill=0;startSize=5;endArrow=classicThin;endFill=1;endSize=5;jettySize=auto;orthogonalLoop=1;strokeColor=#B3B3B3;strokeWidth=1;fontFamily=Verdana;fontSize=12" parent="1" source="1ea317790d2ca983-9" target="1ea317790d2ca983-10" edge="1">
          <mxGeometry relative="1" as="geometry">
            <mxPoint as="offset" />
          </mxGeometry>
        </mxCell>
        <mxCell id="1ea317790d2ca983-9" value="State 1" style="ellipse;whiteSpace=wrap;html=1;rounded=0;shadow=1;comic=0;labelBackgroundColor=none;strokeWidth=1;fontFamily=Verdana;fontSize=12;align=center;" parent="1" vertex="1">
          <mxGeometry x="190" y="100" width="75" height="50" as="geometry" />
        </mxCell>
        <mxCell id="1ea317790d2ca983-20" value="0.6" style="edgeStyle=none;rounded=1;html=1;labelBackgroundColor=none;startArrow=none;startFill=0;startSize=5;endArrow=classicThin;endFill=1;endSize=5;jettySize=auto;orthogonalLoop=1;strokeColor=#B3B3B3;strokeWidth=1;fontFamily=Verdana;fontSize=12" parent="1" source="1ea317790d2ca983-10" target="1ea317790d2ca983-11" edge="1">
          <mxGeometry relative="1" as="geometry" />
        </mxCell>
        <mxCell id="1ea317790d2ca983-10" value="&lt;span&gt;State 4&lt;br&gt;&lt;/span&gt;" style="ellipse;whiteSpace=wrap;html=1;rounded=0;shadow=1;comic=0;labelBackgroundColor=none;strokeWidth=1;fontFamily=Verdana;fontSize=12;align=center;fillColor=#ffe6cc;strokeColor=#d79b00;" parent="1" vertex="1">
          <mxGeometry x="170" y="240" width="75" height="50" as="geometry" />
        </mxCell>
        <mxCell id="1ea317790d2ca983-18" value="0.5" style="edgeStyle=none;rounded=1;html=1;labelBackgroundColor=none;startArrow=none;startFill=0;startSize=5;endArrow=classicThin;endFill=1;endSize=5;jettySize=auto;orthogonalLoop=1;strokeColor=#B3B3B3;strokeWidth=1;fontFamily=Verdana;fontSize=12;entryX=0.28;entryY=0.98;entryDx=0;entryDy=0;entryPerimeter=0;" parent="1" source="1ea317790d2ca983-11" target="1ea317790d2ca983-7" edge="1">
          <mxGeometry relative="1" as="geometry" />
        </mxCell>
        <mxCell id="1ea317790d2ca983-11" value="&lt;span&gt;State 8&lt;/span&gt;" style="ellipse;whiteSpace=wrap;html=1;rounded=0;shadow=1;comic=0;labelBackgroundColor=none;strokeWidth=1;fontFamily=Verdana;fontSize=12;align=center;" parent="1" vertex="1">
          <mxGeometry x="265" y="440" width="75" height="50" as="geometry" />
        </mxCell>
        <mxCell id="OWr_N0TGCGtYlwlOgDQf-6" value="0.4" style="edgeStyle=none;rounded=1;html=1;labelBackgroundColor=none;startArrow=none;startFill=0;startSize=5;endArrow=classicThin;endFill=1;endSize=5;jettySize=auto;orthogonalLoop=1;strokeColor=#B3B3B3;strokeWidth=1;fontFamily=Verdana;fontSize=12;entryX=0.5;entryY=0;entryDx=0;entryDy=0;exitX=0.5;exitY=1;exitDx=0;exitDy=0;" parent="1" source="1ea317790d2ca983-3" target="1ea317790d2ca983-4" edge="1">
          <mxGeometry relative="1" as="geometry">
            <mxPoint x="725" y="245" as="sourcePoint" />
            <mxPoint x="624" y="337" as="targetPoint" />
          </mxGeometry>
        </mxCell>
        <mxCell id="OWr_N0TGCGtYlwlOgDQf-7" value="0.2" style="edgeStyle=none;rounded=1;html=1;labelBackgroundColor=none;startArrow=none;startFill=0;startSize=5;endArrow=classicThin;endFill=1;endSize=5;jettySize=auto;orthogonalLoop=1;strokeColor=#B3B3B3;strokeWidth=1;fontFamily=Verdana;fontSize=12;entryX=1;entryY=0.5;entryDx=0;entryDy=0;exitX=-0.001;exitY=0.587;exitDx=0;exitDy=0;exitPerimeter=0;" parent="1" source="1ea317790d2ca983-3" target="1ea317790d2ca983-2" edge="1">
          <mxGeometry x="-0.0035" relative="1" as="geometry">
            <mxPoint x="700" y="220" as="sourcePoint" />
            <mxPoint x="599" y="312" as="targetPoint" />
            <mxPoint as="offset" />
          </mxGeometry>
        </mxCell>
        <mxCell id="OWr_N0TGCGtYlwlOgDQf-8" value="0.4" style="edgeStyle=none;rounded=1;html=1;labelBackgroundColor=none;startArrow=none;startFill=0;startSize=5;endArrow=classicThin;endFill=1;endSize=5;jettySize=auto;orthogonalLoop=1;strokeColor=#B3B3B3;strokeWidth=1;fontFamily=Verdana;fontSize=12;exitX=0.413;exitY=-0.06;exitDx=0;exitDy=0;exitPerimeter=0;" parent="1" source="1ea317790d2ca983-7" target="1ea317790d2ca983-1" edge="1">
          <mxGeometry relative="1" as="geometry">
            <mxPoint x="360" y="333" as="sourcePoint" />
            <mxPoint x="259" y="425" as="targetPoint" />
          </mxGeometry>
        </mxCell>
        <mxCell id="OWr_N0TGCGtYlwlOgDQf-9" value="0.7" style="edgeStyle=none;rounded=1;html=1;labelBackgroundColor=none;startArrow=none;startFill=0;startSize=5;endArrow=classicThin;endFill=1;endSize=5;jettySize=auto;orthogonalLoop=1;strokeColor=#B3B3B3;strokeWidth=1;fontFamily=Verdana;fontSize=12;exitX=1;exitY=1;exitDx=0;exitDy=0;" parent="1" source="1ea317790d2ca983-9" target="1ea317790d2ca983-7" edge="1">
          <mxGeometry x="-0.0012" relative="1" as="geometry">
            <mxPoint x="285" y="228" as="sourcePoint" />
            <mxPoint x="184" y="320" as="targetPoint" />
            <mxPoint as="offset" />
          </mxGeometry>
        </mxCell>
        <mxCell id="OWr_N0TGCGtYlwlOgDQf-10" value="0.8" style="edgeStyle=none;rounded=1;html=1;labelBackgroundColor=none;startArrow=none;startFill=0;startSize=5;endArrow=classicThin;endFill=1;endSize=5;jettySize=auto;orthogonalLoop=1;strokeColor=#B3B3B3;strokeWidth=1;fontFamily=Verdana;fontSize=12;entryX=1;entryY=0.5;entryDx=0;entryDy=0;exitX=-0.032;exitY=0.444;exitDx=0;exitDy=0;exitPerimeter=0;" parent="1" source="1ea317790d2ca983-6" target="1ea317790d2ca983-7" edge="1">
          <mxGeometry relative="1" as="geometry">
            <mxPoint x="546.75" y="350" as="sourcePoint" />
            <mxPoint x="440" y="350" as="targetPoint" />
          </mxGeometry>
        </mxCell>
        <mxCell id="OWr_N0TGCGtYlwlOgDQf-15" value="0.5" style="edgeStyle=none;rounded=1;html=1;labelBackgroundColor=none;startArrow=none;startFill=0;startSize=5;endArrow=classicThin;endFill=1;endSize=5;jettySize=auto;orthogonalLoop=1;strokeColor=#B3B3B3;strokeWidth=1;fontFamily=Verdana;fontSize=12;exitX=0;exitY=0.5;exitDx=0;exitDy=0;" parent="1" source="1ea317790d2ca983-5" target="1ea317790d2ca983-11" edge="1">
          <mxGeometry relative="1" as="geometry">
            <mxPoint x="461" y="400" as="sourcePoint" />
            <mxPoint x="500" y="438" as="targetPoint" />
          </mxGeometry>
        </mxCell>
        <mxCell id="OWr_N0TGCGtYlwlOgDQf-16" value="0.4" style="edgeStyle=none;rounded=1;html=1;labelBackgroundColor=none;startArrow=none;startFill=0;startSize=5;endArrow=classicThin;endFill=1;endSize=5;jettySize=auto;orthogonalLoop=1;strokeColor=#B3B3B3;strokeWidth=1;fontFamily=Verdana;fontSize=12;entryX=0;entryY=0.5;entryDx=0;entryDy=0;exitX=1.01;exitY=0.329;exitDx=0;exitDy=0;exitPerimeter=0;" parent="1" source="1ea317790d2ca983-10" target="1ea317790d2ca983-2" edge="1">
          <mxGeometry relative="1" as="geometry">
            <mxPoint x="280" y="292" as="sourcePoint" />
            <mxPoint x="308" y="230" as="targetPoint" />
          </mxGeometry>
        </mxCell>
        <mxCell id="OWr_N0TGCGtYlwlOgDQf-17" value="0.6" style="edgeStyle=none;rounded=1;html=1;labelBackgroundColor=none;startArrow=none;startFill=0;startSize=5;endArrow=classicThin;endFill=1;endSize=5;jettySize=auto;orthogonalLoop=1;strokeColor=#B3B3B3;strokeWidth=1;fontFamily=Verdana;fontSize=12;entryX=1.003;entryY=0.71;entryDx=0;entryDy=0;entryPerimeter=0;exitX=-0.006;exitY=0.386;exitDx=0;exitDy=0;exitPerimeter=0;" parent="1" source="1ea317790d2ca983-4" target="1ea317790d2ca983-2" edge="1">
          <mxGeometry x="0.0001" relative="1" as="geometry">
            <mxPoint x="343" y="401" as="sourcePoint" />
            <mxPoint x="371" y="339" as="targetPoint" />
            <mxPoint as="offset" />
          </mxGeometry>
        </mxCell>
        <mxCell id="OWr_N0TGCGtYlwlOgDQf-18" value="0.5" style="edgeStyle=none;rounded=1;html=1;labelBackgroundColor=none;startArrow=none;startFill=0;startSize=5;endArrow=classicThin;endFill=1;endSize=5;jettySize=auto;orthogonalLoop=1;strokeColor=#B3B3B3;strokeWidth=1;fontFamily=Verdana;fontSize=12;entryX=0.049;entryY=0.717;entryDx=0;entryDy=0;exitX=0.937;exitY=0.248;exitDx=0;exitDy=0;exitPerimeter=0;entryPerimeter=0;" parent="1" source="1ea317790d2ca983-11" target="1ea317790d2ca983-6" edge="1">
          <mxGeometry x="0.0006" relative="1" as="geometry">
            <mxPoint x="237" y="550" as="sourcePoint" />
            <mxPoint x="265" y="488" as="targetPoint" />
            <mxPoint as="offset" />
          </mxGeometry>
        </mxCell>
        <mxCell id="tWYIE2EZBnV3U5jOxTZz-1" value="0.1" style="edgeStyle=none;rounded=1;html=1;labelBackgroundColor=none;startArrow=none;startFill=0;startSize=5;endArrow=classicThin;endFill=1;endSize=5;jettySize=auto;orthogonalLoop=1;strokeColor=#B3B3B3;strokeWidth=1;fontFamily=Verdana;fontSize=12;entryX=1;entryY=0.5;entryDx=0;entryDy=0;exitX=0.013;exitY=0.66;exitDx=0;exitDy=0;exitPerimeter=0;" parent="1" source="1ea317790d2ca983-4" target="1ea317790d2ca983-6" edge="1">
          <mxGeometry x="-0.0022" relative="1" as="geometry">
            <mxPoint as="offset" />
            <mxPoint x="760" y="300" as="sourcePoint" />
            <mxPoint x="712" y="384" as="targetPoint" />
          </mxGeometry>
        </mxCell>
        <mxCell id="j70wzwqpIOAIP6pcy98X-1" value="0.3" style="edgeStyle=none;rounded=1;html=1;labelBackgroundColor=none;startArrow=none;startFill=0;startSize=5;endArrow=classicThin;endFill=1;endSize=5;jettySize=auto;orthogonalLoop=1;strokeColor=#B3B3B3;strokeWidth=1;fontFamily=Verdana;fontSize=12;entryX=0;entryY=1;entryDx=0;entryDy=0;exitX=0.973;exitY=0.34;exitDx=0;exitDy=0;exitPerimeter=0;" edge="1" parent="1" source="1ea317790d2ca983-7" target="1ea317790d2ca983-3">
          <mxGeometry relative="1" as="geometry">
            <mxPoint x="405" y="317" as="sourcePoint" />
            <mxPoint x="282" y="310" as="targetPoint" />
          </mxGeometry>
        </mxCell>
      </root>
    </mxGraphModel>
  </diagram>
</mxfile>
